<?xml version="1.0" encoding="UTF-8" standalone="no"?>
<svg xmlns="http://www.w3.org/2000/svg" width="52.916664mm" height="52.916668mm" viewBox="0 0 52.916664 52.916668">
  <g transform="matrix(4.02981 0 0 4.03415 -425.55265 -578.5766)">
    <path fill="#722a8f" d="M111.67199 155.42605c-2.1442-.18888-3.98928-1.64058-4.68841-3.6888-.20042-.58718-.28372-1.10378-.28372-1.75954 0-.4232.0189-.6479.0843-1.00099.24033-1.29849.95497-2.47694 2.00261-3.30234.78979-.62224 1.72866-1.0074 2.76672-1.13499.25118-.0309 1.03606-.0257 1.28251.008.87767.12164 1.6241.39836 2.3338.86518.55026.36194 1.09768.89516 1.47484 1.43659.54186.77784.87579 1.69363.96095 2.6354.0209.23118.0209.75417 0 .98535-.0497.55-.20005 1.14914-.41385 1.64952-.38739.9067-1.02891 1.70701-1.84545 2.30226-.75514.55049-1.7056.90684-2.6635.9986-.26097.025-.75753.0276-1.01077.005zm1.03545-2.10641c.5957-.13031 1.07369-.45067 1.39096-.93226.0995-.15101.19994-.36832.24075-.52078.0295-.11018.0314-.13413.014-.1761-.025-.0604-.0183-.057-.49786-.2506-.33326-.13454-.40519-.15845-.4532-.15066-.0984.016-.13111.054-.19133.22271-.0818.22918-.14844.34384-.27266.46929-.0815.0823-.14027.12536-.22726.16643-.17303.0817-.25869.0979-.51613.0978-.19342-.00011-.24405-.005-.34409-.0366-.31301-.0974-.5297-.3004-.65354-.61234-.10494-.26433-.11218-.36235-.11253-1.52293-.00034-1.11677.006-1.22688.0864-1.47274.16494-.50528.55306-.76686 1.09385-.73724.32721.0179.5094.089.69269.27042.0927.0917.12666.13987.18378.26046.0385.0814.0701.15567.0701.1651 0 .009.0146.0562.0325.10399.0361.0964.0846.13331.17534.13331.0556 0 .8002-.22158.8765-.26084.0589-.0303.0947-.11776.0816-.19974-.0159-.0998-.11067-.37008-.17382-.49549-.0932-.18515-.19275-.32496-.34011-.47784-.21376-.22178-.45627-.37279-.76452-.47606-.53527-.17933-1.28697-.17527-1.8526.01-.52642.17244-.9343.52093-1.1779 1.00637-.0735.14645-.16768.44075-.20629.64454-.0325.17147-.0341.22831-.0406 1.41425-.007 1.29492-.00087 1.4788.0602 1.783.16982.84589.71316 1.37984 1.5835 1.55613.25667.052.37354.0607.74516.0553.2815-.004.38095-.0114.49708-.0369zm4.19304-7.88156c-.0195-.0248-.0189-.0254.006-.006.0261.0204.0343.0333.0215.0333-.003 0-.0156-.0123-.0274-.0274zm-.20333-.20332c-.0194-.0248-.0189-.0254.006-.006.0261.0204.0343.0333.0215.0333-.003 0-.0156-.0123-.0274-.0274z"/>
    <path fill="#fff" d="M111.52218 156.5218c-.8287-.0918-1.55254-.30118-2.26382-.65498-1.0536-.52407-1.90726-1.27674-2.56386-2.26054-.87318-1.30831-1.24548-2.9181-1.03673-4.48269.20411-1.52984.94384-2.94738 2.07597-3.9782 1.27351-1.15953 2.87331-1.76292 4.57046-1.72381.70348.0162 1.26062.1096 1.8974.31805 2.3744.77727 4.11264 2.83967 4.46667 5.29965.10143.70479.0816 1.52282-.0536 2.20721-.28242 1.43041-1.02104 2.70712-2.12982 3.68143-1.01296.89011-2.27981 1.44456-3.62738 1.58756-.23827.0253-1.12612.0295-1.33534.006zm1.16058-1.10104c.9579-.0918 1.90836-.44811 2.6635-.9986.38205-.27851.80951-.68507 1.08449-1.03147.67403-.84912 1.07842-1.85433 1.17481-2.92031.0209-.23118.0209-.75417 0-.98535-.0634-.70101-.27729-1.43013-.59648-2.03325-.27937-.52787-.55821-.90592-.98179-1.33107-.87594-.8792-1.92813-1.39777-3.19132-1.57285-.24645-.0342-1.03133-.0393-1.28251-.008-1.64464.20215-3.04985 1.06302-3.94972 2.41972-.48404.72977-.76595 1.50091-.87767 2.4008-.0361.29072-.0361.94487 0 1.23559.19897 1.60265 1.02202 2.97536 2.32783 3.88243.76155.52901 1.69412.86673 2.61809.94812.25324.0223.7498.0197 1.01077-.005zm-.94162-2.07331c-1.03894-.12506-1.67246-.671-1.85944-1.60238-.0611-.3042-.0673-.48808-.0602-1.783.006-1.18594.008-1.24278.0406-1.41425.0386-.20379.1328-.49809.20629-.64454.2918-.58149.80924-.95708 1.50299-1.09096.50417-.0973 1.10157-.0681 1.52751.0746.49377.16543.87208.49212 1.10463.9539.0631.12541.15797.39569.17382.49549.013.082-.0227.16942-.0816.19974-.0763.0393-.82087.26084-.8765.26084-.0907 0-.13927-.0369-.17534-.13331-.0179-.0478-.0325-.0945-.0325-.10399 0-.009-.0315-.0837-.0701-.1651-.0571-.12059-.0911-.16877-.18378-.26046-.18329-.18137-.36548-.2525-.69269-.27042-.28891-.0158-.53209.0505-.72999.19898-.23001.17261-.37063.4425-.42646.81847-.0198.13362-.024.34415-.0238 1.19253.00035 1.16058.008 1.2586.11253 1.52293.0894.22517.26321.43196.44248.52644.18179.0958.3022.12238.55515.12251.25744.00014.3431-.0161.51613-.0978.087-.0411.14572-.0841.22726-.16643.12422-.12545.19084-.24011.27266-.46929.0602-.16867.0929-.20674.19133-.22271.048-.008.11994.0161.4532.15066.47953.19359.47285.19022.49786.2506.0174.042.0155.0659-.014.1761-.16249.60712-.71222 1.16526-1.35801 1.37879-.26396.0873-.39116.10561-.77078.1111-.19355.003-.4047-.001-.46922-.009z"/>
  </g>
</svg>