<?xml version="1.0" encoding="UTF-8" standalone="no"?>
<!-- Created with Inkscape (http://www.inkscape.org/) -->

<svg
   xmlns:dc="http://purl.org/dc/elements/1.1/"
   xmlns:cc="http://creativecommons.org/ns#"
   xmlns:rdf="http://www.w3.org/1999/02/22-rdf-syntax-ns#"
   xmlns:svg="http://www.w3.org/2000/svg"
   xmlns="http://www.w3.org/2000/svg"
   xmlns:sodipodi="http://sodipodi.sourceforge.net/DTD/sodipodi-0.dtd"
   xmlns:inkscape="http://www.inkscape.org/namespaces/inkscape"
   width="52.916668mm"
   height="52.916668mm"
   viewBox="0 0 52.916668 52.916668"
   version="1.1"
   id="svg8"
   inkscape:version="0.92.3 (2405546, 2018-03-11)"
   sodipodi:docname="Ferries.svg">
  <defs
     id="defs2" />
  <sodipodi:namedview
     id="base"
     pagecolor="#ffffff"
     bordercolor="#666666"
     borderopacity="1.0"
     inkscape:pageopacity="0.0"
     inkscape:pageshadow="2"
     inkscape:zoom="4.0204442"
     inkscape:cx="67.503835"
     inkscape:cy="51.170936"
     inkscape:document-units="mm"
     inkscape:current-layer="layer1"
     showgrid="false"
     inkscape:pagecheckerboard="true"
     fit-margin-top="0"
     fit-margin-left="0"
     fit-margin-right="0"
     fit-margin-bottom="0"
     inkscape:window-width="743"
     inkscape:window-height="614"
     inkscape:window-x="826"
     inkscape:window-y="32"
     inkscape:window-maximized="0" />
  <metadata
     id="metadata5">
    <rdf:RDF>
      <cc:Work
         rdf:about="">
        <dc:format>image/svg+xml</dc:format>
        <dc:type
           rdf:resource="http://purl.org/dc/dcmitype/StillImage" />
        <dc:title></dc:title>
      </cc:Work>
    </rdf:RDF>
  </metadata>
  <g
     inkscape:label="Layer 1"
     inkscape:groupmode="layer"
     id="layer1"
     transform="translate(-87.972944,-109.45564)">
    <g
       id="g34"
       transform="matrix(4.4548424,0,0,4.452918,-384.55464,-522.26944)">
      <path
         style="fill:#51be36;fill-opacity:1;stroke-width:0.01415042"
         d="m 111.58321,152.83175 c -0.306,-0.0269 -0.6763,-0.0933 -0.90562,-0.16231 -0.69292,-0.20864 -1.12415,-0.41934 -1.63795,-0.80033 -0.072,-0.0534 -0.13498,-0.0971 -0.13993,-0.0971 -0.0208,0 -0.22294,-0.17538 -0.39966,-0.34668 -0.18641,-0.1807 -0.42179,-0.44134 -0.45557,-0.50445 -0.009,-0.0176 -0.0502,-0.0769 -0.0906,-0.13172 -0.42446,-0.5763 -0.70776,-1.18911 -0.86377,-1.86846 -0.096,-0.41804 -0.12597,-0.73666 -0.1158,-1.23108 0.0106,-0.51362 0.0624,-0.8508 0.20163,-1.31209 0.17187,-0.56933 0.43118,-1.08269 0.78687,-1.55778 0.0455,-0.0608 0.0828,-0.11422 0.0828,-0.11871 0,-0.0203 0.17779,-0.22548 0.33933,-0.39168 0.17319,-0.17818 0.46745,-0.44297 0.50969,-0.45863 0.0117,-0.004 0.0562,-0.0344 0.0991,-0.0669 0.13947,-0.10577 0.48083,-0.33063 0.60308,-0.39727 0.98663,-0.53781 2.13514,-0.72913 3.25291,-0.54186 0.64498,0.10806 1.34846,0.38406 1.8671,0.73253 0.10937,0.0735 0.23388,0.16026 0.27668,0.19284 0.0428,0.0326 0.0937,0.0675 0.11321,0.0776 0.10647,0.0553 0.53227,0.45937 0.72535,0.68835 0.0956,0.11336 0.11636,0.14202 0.32885,0.45393 0.0623,0.0914 0.12042,0.17396 0.12924,0.1835 0.0287,0.0311 0.18614,0.31939 0.26089,0.47785 0.24631,0.52218 0.39314,1.03669 0.46056,1.61381 0.0284,0.24343 0.0321,0.79227 0.007,1.03298 -0.0617,0.59016 -0.21624,1.14194 -0.46801,1.67118 -0.0849,0.17855 -0.22966,0.44416 -0.25928,0.47585 -0.009,0.0101 -0.0681,0.0934 -0.13037,0.1852 -0.19786,0.29161 -0.23111,0.33754 -0.32883,0.45431 -0.18692,0.22338 -0.59798,0.61233 -0.73499,0.69547 -0.0395,0.024 -0.31768,0.21872 -0.4149,0.29046 -0.14386,0.10617 -0.64444,0.35566 -0.91712,0.45709 -0.45285,0.16844 -0.88284,0.26437 -1.36817,0.30522 -0.19682,0.0166 -0.61902,0.016 -0.81365,-0.001 z m 0.0315,-1.7641 0.0322,-0.0322 0.004,-1.19504 0.004,-1.19504 0.99859,-0.004 0.9986,-0.004 0.0341,-0.0397 0.0342,-0.0397 v -0.4315 c 0,-0.45171 -0.006,-0.49787 -0.0643,-0.52036 -0.0126,-0.005 -0.46813,-0.009 -1.01228,-0.009 h -0.98937 v -0.81331 -0.81331 l 1.09081,-0.004 1.09081,-0.004 0.0341,-0.0397 0.0341,-0.0397 v -0.46371 -0.46371 l -0.0365,-0.0343 -0.0365,-0.0343 -1.69691,-0.004 -1.69691,-0.004 v 3.07524 c 0,2.43937 0.004,3.08024 0.0177,3.09944 0.01,0.0133 0.0368,0.0301 0.0601,0.0372 0.0233,0.007 0.2731,0.0118 0.55501,0.0103 l 0.51258,-0.003 z m 6.3243,-3.13039 c 0,-0.0195 0.003,-0.0274 0.007,-0.0177 0.004,0.01 0.004,0.0257 0,0.0354 -0.004,0.01 -0.007,0.002 -0.007,-0.0177 z m 0,-0.25471 c 0,-0.0195 0.003,-0.0274 0.007,-0.0177 0.004,0.01 0.004,0.0256 0,0.0354 -0.004,0.01 -0.007,0.002 -0.007,-0.0177 z"
         id="path38"
         inkscape:connector-curvature="0" />
      <path
         style="fill:#ffffff;stroke-width:0.01415042"
         d="m 111.59135,153.73793 c -0.64837,-0.0464 -1.28469,-0.19958 -1.89014,-0.45507 -0.57104,-0.24096 -1.04225,-0.52616 -1.49995,-0.90782 -0.19578,-0.16326 -0.68572,-0.66409 -0.8448,-0.86358 -0.21435,-0.2688 -0.57991,-0.82862 -0.62143,-0.95165 -0.005,-0.0143 -0.0488,-0.10873 -0.0978,-0.2099 -0.27031,-0.55855 -0.45739,-1.20848 -0.53968,-1.87493 -0.036,-0.29153 -0.036,-1.03862 0,-1.33014 0.12619,-1.02204 0.49628,-1.98517 1.07166,-2.78896 0.18988,-0.26525 0.34622,-0.44489 0.65449,-0.752 0.50711,-0.50522 0.95626,-0.83006 1.53232,-1.10823 1.22256,-0.59035 2.49181,-0.76595 3.76249,-0.52054 0.491,0.0948 1.16073,0.32114 1.50397,0.50822 0.0489,0.0267 0.0958,0.0485 0.10419,0.0485 0.039,0 0.48706,0.27072 0.69836,0.42191 0.29035,0.20776 0.44098,0.33769 0.75767,0.65352 0.41589,0.41478 0.60136,0.64378 0.87839,1.08459 0.12662,0.20147 0.33783,0.62408 0.44806,0.89647 0.42472,1.04965 0.53985,2.18623 0.33481,3.30551 -0.11534,0.62968 -0.38249,1.34962 -0.71096,1.91599 -0.23924,0.41253 -0.50761,0.75778 -0.89432,1.1505 -0.38442,0.39041 -0.66794,0.62375 -1.05961,0.87209 -0.18436,0.1169 -0.42932,0.25563 -0.45136,0.25563 -0.009,0 -0.0563,0.0219 -0.10523,0.0487 -0.34704,0.18991 -1.05636,0.42742 -1.54353,0.51685 -0.47462,0.0871 -1.01831,0.11798 -1.48762,0.0844 z m 0.80551,-0.90506 c 0.48533,-0.0409 0.91532,-0.13678 1.36817,-0.30522 0.27268,-0.10143 0.77326,-0.35092 0.91712,-0.45709 0.0972,-0.0717 0.37538,-0.26648 0.4149,-0.29046 0.13701,-0.0831 0.54807,-0.47209 0.73499,-0.69547 0.0977,-0.11677 0.13097,-0.1627 0.32883,-0.45431 0.0623,-0.0918 0.12093,-0.1751 0.13037,-0.1852 0.0296,-0.0317 0.17435,-0.2973 0.25928,-0.47585 0.25177,-0.52924 0.40629,-1.08102 0.46801,-1.67118 0.0252,-0.24071 0.0215,-0.78955 -0.007,-1.03298 -0.0674,-0.57712 -0.21425,-1.09163 -0.46056,-1.61381 -0.0748,-0.15846 -0.23216,-0.44678 -0.26089,-0.47785 -0.009,-0.01 -0.067,-0.0921 -0.12924,-0.1835 -0.21249,-0.31191 -0.23326,-0.34057 -0.32885,-0.45393 -0.19308,-0.22898 -0.61888,-0.63305 -0.72535,-0.68835 -0.0195,-0.0101 -0.0704,-0.045 -0.11321,-0.0776 -0.60691,-0.46184 -1.38706,-0.79859 -2.14378,-0.92537 -0.65523,-0.10977 -1.32938,-0.0913 -1.95984,0.0537 -0.43447,0.1 -0.9108,0.27976 -1.29307,0.48813 -0.12225,0.0666 -0.46361,0.2915 -0.60308,0.39727 -0.0428,0.0325 -0.0874,0.0626 -0.0991,0.0669 -0.0422,0.0157 -0.3365,0.28045 -0.50969,0.45863 -0.16154,0.1662 -0.33933,0.37141 -0.33933,0.39168 0,0.004 -0.0372,0.0579 -0.0828,0.11871 -0.35569,0.47509 -0.615,0.98845 -0.78687,1.55778 -0.13925,0.46129 -0.19107,0.79847 -0.20163,1.31209 -0.0102,0.49442 0.0198,0.81304 0.1158,1.23108 0.15601,0.67935 0.43931,1.29216 0.86377,1.86846 0.0404,0.0548 0.0811,0.11409 0.0906,0.13172 0.0338,0.0631 0.26916,0.32375 0.45557,0.50445 0.17672,0.1713 0.3789,0.34668 0.39966,0.34668 0.005,0 0.0679,0.0437 0.13993,0.0971 0.5138,0.38099 0.94503,0.59169 1.63795,0.80033 0.22932,0.069 0.59962,0.13541 0.90562,0.16231 0.19463,0.0171 0.61683,0.0177 0.81365,0.001 z m -1.88199,-1.74067 c -0.0233,-0.007 -0.0504,-0.0239 -0.0601,-0.0372 -0.014,-0.0192 -0.0177,-0.66007 -0.0177,-3.09944 v -3.07524 l 1.69691,0.004 1.69691,0.004 0.0365,0.0343 0.0365,0.0343 v 0.46371 0.46371 l -0.0341,0.0397 -0.0341,0.0397 -1.09081,0.004 -1.09081,0.004 v 0.81331 0.81331 h 0.98937 c 0.54415,0 0.99968,0.004 1.01228,0.009 0.0586,0.0225 0.0643,0.0687 0.0643,0.52036 v 0.4315 l -0.0342,0.0397 -0.0341,0.0397 -0.9986,0.004 -0.99859,0.004 -0.004,1.19504 -0.004,1.19504 -0.0322,0.0322 -0.0322,0.0322 -0.51258,0.003 c -0.28191,0.001 -0.53167,-0.003 -0.55501,-0.0103 z"
         id="path36"
         inkscape:connector-curvature="0" />
    </g>
  </g>
</svg>
