<?xml version="1.0" encoding="UTF-8" standalone="no"?>
<!-- Created with Inkscape (http://www.inkscape.org/) -->

<svg
   xmlns:dc="http://purl.org/dc/elements/1.1/"
   xmlns:cc="http://creativecommons.org/ns#"
   xmlns:rdf="http://www.w3.org/1999/02/22-rdf-syntax-ns#"
   xmlns:svg="http://www.w3.org/2000/svg"
   xmlns="http://www.w3.org/2000/svg"
   xmlns:sodipodi="http://sodipodi.sourceforge.net/DTD/sodipodi-0.dtd"
   xmlns:inkscape="http://www.inkscape.org/namespaces/inkscape"
   width="52.916668mm"
   height="52.916668mm"
   viewBox="0 0 52.916668 52.916668"
   version="1.1"
   id="svg8"
   inkscape:version="0.92.3 (2405546, 2018-03-11)"
   sodipodi:docname="Light rail.svg">
  <defs
     id="defs2" />
  <sodipodi:namedview
     id="base"
     pagecolor="#ffffff"
     bordercolor="#666666"
     borderopacity="1.0"
     inkscape:pageopacity="0.0"
     inkscape:pageshadow="2"
     inkscape:zoom="4.0204442"
     inkscape:cx="83.09695"
     inkscape:cy="57.079932"
     inkscape:document-units="mm"
     inkscape:current-layer="layer1"
     showgrid="false"
     inkscape:pagecheckerboard="true"
     fit-margin-top="0"
     fit-margin-left="0"
     fit-margin-right="0"
     fit-margin-bottom="0"
     inkscape:window-width="743"
     inkscape:window-height="614"
     inkscape:window-x="826"
     inkscape:window-y="32"
     inkscape:window-maximized="0" />
  <metadata
     id="metadata5">
    <rdf:RDF>
      <cc:Work
         rdf:about="">
        <dc:format>image/svg+xml</dc:format>
        <dc:type
           rdf:resource="http://purl.org/dc/dcmitype/StillImage" />
        <dc:title></dc:title>
      </cc:Work>
    </rdf:RDF>
  </metadata>
  <g
     inkscape:label="Layer 1"
     inkscape:groupmode="layer"
     id="layer1"
     transform="translate(-83.847266,-111.01906)">
    <g
       id="g4576"
       transform="matrix(4.0326572,0,0,4.0333505,-349.55398,-443.12627)">
      <path
         style="fill:#ed2438;fill-opacity:1;stroke-width:0.01564039"
         d="m 113.43916,149.44317 c -0.52573,-0.0587 -1.03844,-0.18811 -1.47986,-0.37358 -0.45859,-0.19267 -0.56415,-0.2457 -0.8662,-0.43509 -0.56737,-0.35575 -1.08789,-0.83383 -1.48529,-1.36418 -0.61517,-0.821 -0.96671,-1.72327 -1.08207,-2.77726 -0.0288,-0.26335 -0.0245,-0.88126 0.008,-1.15739 0.12659,-1.07119 0.516,-2.00928 1.18163,-2.84655 0.15514,-0.19515 0.65768,-0.6982 0.84578,-0.84665 0.45564,-0.35958 0.85508,-0.59258 1.39981,-0.81654 0.71297,-0.29312 1.59368,-0.43742 2.37343,-0.38889 0.77575,0.0483 1.37558,0.20054 2.08003,0.528 0.58273,0.27089 1.04162,0.59599 1.5236,1.07942 0.29887,0.29975 0.51907,0.56593 0.71442,0.86358 0.3018,0.45984 0.47934,0.83053 0.63773,1.33161 0.19328,0.61142 0.26656,1.08545 0.26617,1.72164 -3.8e-4,0.62193 -0.0817,1.13376 -0.27519,1.73214 -0.12609,0.38993 -0.33458,0.83609 -0.55616,1.19012 -0.13555,0.21657 -0.4093,0.58011 -0.54147,0.71905 -0.0589,0.062 -0.1318,0.14195 -0.1619,0.17776 -0.0872,0.10371 -0.42962,0.40954 -0.62562,0.55875 -0.34715,0.26429 -0.59105,0.41214 -0.98011,0.59413 -0.55862,0.2613 -1.02042,0.40024 -1.62402,0.48861 -0.28848,0.0422 -1.05702,0.0543 -1.35289,0.0213 z m 2.7203,-2.05551 c 0.045,-0.045 0.0509,-0.12331 0.0453,-0.60401 -0.006,-0.48793 -0.01,-0.50935 -0.10763,-0.52888 -0.0275,-0.005 -0.64378,-0.01 -1.36959,-0.01 h -1.31966 v -2.75842 -2.75842 l -0.0324,-0.0412 -0.0324,-0.0412 h -0.60771 -0.6077 l -0.0324,0.0412 -0.0324,0.0412 v 3.34494 3.34493 h 2.03325 c 1.98705,0 2.03393,-6.8e-4 2.0634,-0.0301 z"
         id="path4580"
         inkscape:connector-curvature="0" />
      <path
         style="fill:#ffffff;stroke-width:0.01564039"
         d="m 113.62685,150.50549 c -0.0301,-0.003 -0.14272,-0.0138 -0.25025,-0.0233 -0.54601,-0.0479 -1.06405,-0.17193 -1.75955,-0.42117 -0.23739,-0.0851 -0.88288,-0.40686 -0.96188,-0.47952 -0.0129,-0.0119 -0.11848,-0.0841 -0.23461,-0.16056 -0.59283,-0.39025 -1.03025,-0.77857 -1.45511,-1.29178 -0.12751,-0.15402 -0.32789,-0.41997 -0.32789,-0.43517 0,-0.005 -0.0495,-0.0846 -0.10994,-0.17634 -0.0605,-0.0917 -0.13497,-0.21157 -0.16557,-0.26629 -0.0306,-0.0547 -0.0612,-0.0995 -0.0679,-0.0995 -0.021,0 -0.29067,-0.5596 -0.38057,-0.78984 -0.19872,-0.50898 -0.32669,-1.01045 -0.40519,-1.58779 -0.0307,-0.22574 -0.0351,-0.32678 -0.0355,-0.81301 -3.9e-4,-0.44895 0.005,-0.59715 0.028,-0.7742 0.0793,-0.60853 0.21486,-1.14612 0.42215,-1.67353 0.0831,-0.21145 0.32203,-0.70763 0.35872,-0.74496 0.0116,-0.0118 0.0589,-0.0848 0.10525,-0.16218 0.0463,-0.0774 0.12515,-0.20208 0.1752,-0.27702 0.0501,-0.0749 0.091,-0.14038 0.091,-0.14544 0,-0.005 0.0608,-0.0901 0.13513,-0.18909 0.18611,-0.24778 0.4321,-0.52483 0.67211,-0.75698 0.19657,-0.19013 0.46114,-0.42229 0.48124,-0.42229 0.005,0 0.0715,-0.047 0.14667,-0.10455 0.0752,-0.0575 0.23145,-0.16682 0.34724,-0.24293 0.1158,-0.0761 0.21433,-0.14389 0.21897,-0.15062 0.0315,-0.0457 0.68378,-0.37418 0.9088,-0.45764 0.9322,-0.34575 1.5812,-0.46897 2.47014,-0.46897 0.93794,0 1.77327,0.1705 2.62758,0.53632 0.25727,0.11016 0.69075,0.33554 0.72728,0.37813 0.009,0.01 0.0919,0.0666 0.18518,0.12571 0.0932,0.0591 0.25664,0.17249 0.36311,0.25195 0.10647,0.0795 0.20261,0.14816 0.21365,0.15265 0.0426,0.0173 0.43505,0.37486 0.60041,0.54701 0.37888,0.39445 0.59088,0.6747 0.91981,1.21594 0.0601,0.0989 0.11378,0.18338 0.11923,0.18769 0.0225,0.0177 0.15999,0.28806 0.25062,0.49267 0.26511,0.59854 0.44098,1.24548 0.52509,1.93159 0.0351,0.28646 0.0401,1.11322 0.008,1.39981 -0.0719,0.65075 -0.24114,1.32033 -0.47394,1.87491 -0.0871,0.2076 -0.2871,0.61374 -0.30629,0.62212 -0.007,0.003 -0.0468,0.0653 -0.0888,0.13838 -0.042,0.0731 -0.12291,0.20332 -0.17973,0.28935 -0.0568,0.086 -0.11139,0.17156 -0.12125,0.1901 -0.0319,0.06 -0.25833,0.35173 -0.4037,0.52022 -0.38921,0.45111 -0.82875,0.83037 -1.385,1.19505 -0.0989,0.0649 -0.19043,0.12772 -0.20333,0.13969 -0.0345,0.032 -0.247,0.15078 -0.46139,0.25791 -0.6542,0.32689 -1.43557,0.55457 -2.18966,0.63803 -0.21833,0.0242 -0.99914,0.0444 -1.13392,0.0294 z m 1.1652,-1.08364 c 0.6036,-0.0884 1.0654,-0.22731 1.62402,-0.48861 0.38906,-0.18199 0.63296,-0.32984 0.98011,-0.59413 0.196,-0.14921 0.53843,-0.45504 0.62562,-0.55875 0.0301,-0.0358 0.10296,-0.1158 0.1619,-0.17776 0.13217,-0.13894 0.40592,-0.50248 0.54147,-0.71905 0.1239,-0.19797 0.32368,-0.58437 0.41575,-0.80413 0.13394,-0.3197 0.28086,-0.82964 0.34214,-1.18753 0.0721,-0.42088 0.0963,-1.05581 0.0558,-1.46238 -0.0641,-0.64357 -0.24421,-1.30103 -0.5089,-1.8582 -0.26814,-0.56443 -0.61291,-1.04662 -1.09171,-1.52685 -0.48198,-0.48343 -0.94087,-0.80853 -1.5236,-1.07942 -0.70445,-0.32746 -1.30428,-0.47972 -2.08003,-0.528 -0.77975,-0.0485 -1.66046,0.0958 -2.37343,0.38889 -0.54473,0.22396 -0.94417,0.45696 -1.39981,0.81654 -0.1881,0.14845 -0.69064,0.6515 -0.84578,0.84665 -0.66563,0.83727 -1.05504,1.77536 -1.18163,2.84655 -0.0326,0.27613 -0.037,0.89404 -0.008,1.15739 0.0865,0.79005 0.32479,1.54611 0.68773,2.18183 0.45115,0.79023 1.10983,1.47693 1.87963,1.95961 0.30205,0.18939 0.40761,0.24242 0.8662,0.43509 0.44142,0.18547 0.95413,0.31489 1.47986,0.37358 0.29587,0.033 1.06441,0.0209 1.35289,-0.0213 z m -2.72924,-5.34897 v -3.34494 l 0.0324,-0.0412 0.0324,-0.0412 h 0.6077 0.60771 l 0.0324,0.0412 0.0324,0.0412 v 2.75842 2.75842 h 1.31966 c 0.72581,0 1.34213,0.005 1.36959,0.01 0.0976,0.0195 0.10199,0.0409 0.10763,0.52888 0.006,0.4807 -3.2e-4,0.55903 -0.0453,0.60401 -0.0295,0.0295 -0.0763,0.0301 -2.0634,0.0301 h -2.03325 z"
         id="path4578"
         inkscape:connector-curvature="0" />
    </g>
  </g>
</svg>
