<?xml version="1.0" encoding="UTF-8" standalone="no"?>
<!-- Created with Inkscape (http://www.inkscape.org/) -->

<svg
   xmlns:dc="http://purl.org/dc/elements/1.1/"
   xmlns:cc="http://creativecommons.org/ns#"
   xmlns:rdf="http://www.w3.org/1999/02/22-rdf-syntax-ns#"
   xmlns:svg="http://www.w3.org/2000/svg"
   xmlns="http://www.w3.org/2000/svg"
   xmlns:sodipodi="http://sodipodi.sourceforge.net/DTD/sodipodi-0.dtd"
   xmlns:inkscape="http://www.inkscape.org/namespaces/inkscape"
   width="52.916668mm"
   height="52.916668mm"
   viewBox="0 0 52.916668 52.916668"
   version="1.1"
   id="svg8"
   inkscape:version="0.92.3 (2405546, 2018-03-11)"
   sodipodi:docname="Metro.svg">
  <defs
     id="defs2" />
  <sodipodi:namedview
     id="base"
     pagecolor="#ffffff"
     bordercolor="#666666"
     borderopacity="1.0"
     inkscape:pageopacity="0.0"
     inkscape:pageshadow="2"
     inkscape:zoom="1.873833"
     inkscape:cx="130.85313"
     inkscape:cy="117.8374"
     inkscape:document-units="mm"
     inkscape:current-layer="layer1"
     showgrid="false"
     inkscape:pagecheckerboard="true"
     fit-margin-top="0"
     fit-margin-left="0"
     fit-margin-right="0"
     fit-margin-bottom="0"
     inkscape:window-width="781"
     inkscape:window-height="624"
     inkscape:window-x="871"
     inkscape:window-y="37"
     inkscape:window-maximized="0" />
  <metadata
     id="metadata5">
    <rdf:RDF>
      <cc:Work
         rdf:about="">
        <dc:format>image/svg+xml</dc:format>
        <dc:type
           rdf:resource="http://purl.org/dc/dcmitype/StillImage" />
        <dc:title></dc:title>
      </cc:Work>
    </rdf:RDF>
  </metadata>
  <g
     inkscape:label="Layer 1"
     inkscape:groupmode="layer"
     id="layer1"
     transform="translate(-93.108693,-107.11018)">
    <g
       id="g21"
       transform="matrix(6.0061674,0,0,6.0012492,-516.08211,-759.61496)">
      <path
         style="fill:#04959e;fill-opacity:1;stroke-width:0.01050021"
         d="m 105.58457,152.53873 c -0.80015,-0.0542 -1.57978,-0.37764 -2.18322,-0.90586 -0.71826,-0.62874 -1.15892,-1.4746 -1.25877,-2.41628 -0.0181,-0.17065 -0.0209,-0.57121 -0.005,-0.73127 0.0709,-0.71808 0.32676,-1.35827 0.77656,-1.94291 0.11989,-0.15584 0.44354,-0.48366 0.59873,-0.60645 0.57473,-0.45475 1.19292,-0.71027 1.93729,-0.80076 0.16574,-0.0201 0.64259,-0.0168 0.81902,0.006 0.87649,0.11212 1.63583,0.48928 2.23669,1.11096 0.56787,0.58754 0.90923,1.30007 1.02038,2.12987 0.0237,0.17718 0.0268,0.68906 0.005,0.86102 -0.0784,0.62192 -0.26679,1.13814 -0.59751,1.63697 -0.47912,0.72267 -1.19047,1.25383 -2.0189,1.5075 -0.42102,0.12892 -0.884,0.18162 -1.33029,0.15141 z m -1.13205,-1.51541 c 0.0219,-0.009 0.0384,-0.0246 0.0421,-0.0394 0.003,-0.0134 0.004,-0.71418 0.003,-1.55735 -0.003,-1.37948 -0.005,-1.55018 -0.0221,-1.70425 -0.0102,-0.0942 -0.0171,-0.17889 -0.0153,-0.18826 0.002,-0.009 0.20361,0.75755 0.44845,1.70426 0.24484,0.9467 0.45285,1.73518 0.46224,1.75217 0.0108,0.0196 0.0298,0.0342 0.0518,0.0399 0.0191,0.005 0.19487,0.008 0.39062,0.006 0.34868,-0.003 0.35636,-0.004 0.37858,-0.0258 0.0175,-0.0175 0.13351,-0.41755 0.5098,-1.75818 0.26792,-0.95451 0.48937,-1.73772 0.49211,-1.74046 0.0129,-0.0129 0.0116,0.0174 -0.008,0.20327 -0.0202,0.1888 -0.0215,0.28177 -0.0255,1.73343 -0.004,1.50968 -0.004,1.53433 0.0163,1.55928 l 0.0205,0.0254 h 0.34714 0.34714 l 0.0239,-0.0239 0.0239,-0.0239 0.003,-2.12338 c 0.002,-1.16786 2.5e-4,-2.13877 -0.003,-2.15758 -0.0116,-0.0649 -0.002,-0.0637 -0.56164,-0.067 -0.46868,-0.003 -0.51228,-0.002 -0.54718,0.0155 -0.0459,0.0224 -0.0502,0.0313 -0.10365,0.21636 -0.0408,0.14106 -0.46169,1.54378 -0.58311,1.94317 -0.12648,0.41604 -0.23342,0.87784 -0.28389,1.22601 -0.0148,0.10215 -0.0283,0.18716 -0.0301,0.1889 -0.002,0.002 -0.006,-0.0289 -0.0102,-0.068 -0.0229,-0.23055 -0.10894,-0.69273 -0.18958,-1.01835 -0.0464,-0.18755 -0.66731,-2.38466 -0.69011,-2.44216 -0.0245,-0.0618 -0.006,-0.06 -0.60316,-0.06 -0.52367,0 -0.54885,8.9e-4 -0.57255,0.0201 l -0.0248,0.0201 -0.003,2.1447 c -0.002,1.93151 -0.001,2.14719 0.0137,2.16978 0.009,0.0138 0.0268,0.0293 0.0395,0.0344 0.0127,0.005 0.15902,0.01 0.32524,0.01 0.23988,5.2e-4 0.30965,-0.002 0.33825,-0.0144 z"
         id="path25"
         inkscape:connector-curvature="0" />
      <path
         style="fill:#ffffff;stroke-width:0.01050021"
         d="m 105.52883,153.23164 c -1.25053,-0.0836 -2.44219,-0.72994 -3.20566,-1.73882 -0.34639,-0.45774 -0.60405,-0.98499 -0.74803,-1.53071 -0.27405,-1.03874 -0.16414,-2.13083 0.3103,-3.08298 0.65276,-1.31003 1.88812,-2.2041 3.334,-2.41292 0.42305,-0.0611 0.92428,-0.0554 1.34366,0.0153 1.21048,0.20407 2.28527,0.90584 2.95848,1.93169 0.37744,0.57515 0.59574,1.16589 0.69255,1.87412 0.0208,0.15216 0.0237,0.21798 0.0238,0.54076 1.2e-4,0.39329 -0.008,0.49982 -0.064,0.80326 -0.14149,0.77119 -0.48524,1.48498 -1.00377,2.08429 -0.14151,0.16356 -0.40889,0.42149 -0.57522,0.5549 -0.14551,0.11671 -0.4336,0.31332 -0.58276,0.39771 -0.75526,0.42731 -1.61174,0.62162 -2.4833,0.56339 z m 0.54076,-0.69215 c 0.5073,-0.0341 0.94153,-0.1499 1.39653,-0.37228 0.60332,-0.29489 1.09633,-0.72734 1.46764,-1.28739 0.33072,-0.49883 0.51915,-1.01505 0.59751,-1.63697 0.0217,-0.17196 0.0186,-0.68384 -0.005,-0.86102 -0.11115,-0.8298 -0.45251,-1.54233 -1.02038,-2.12987 -0.60086,-0.62168 -1.3602,-0.99884 -2.23669,-1.11096 -0.17643,-0.0226 -0.65328,-0.0259 -0.81902,-0.006 -0.74437,0.0905 -1.36256,0.34601 -1.93729,0.80076 -0.15519,0.12279 -0.47884,0.45061 -0.59873,0.60645 -0.4498,0.58464 -0.70568,1.22483 -0.77656,1.94291 -0.0269,0.27272 -0.008,0.71662 0.0422,0.99903 0.33013,1.85085 2.02339,3.18074 3.88989,3.05514 z m -2.28056,-1.51171 c -0.0126,-0.005 -0.0304,-0.0206 -0.0395,-0.0344 -0.0148,-0.0226 -0.0162,-0.23827 -0.0137,-2.16978 l 0.003,-2.1447 0.0248,-0.0201 c 0.0237,-0.0192 0.0489,-0.0201 0.57255,-0.0201 0.5971,0 0.57866,-0.002 0.60316,0.06 0.0228,0.0575 0.64367,2.25461 0.69011,2.44216 0.0806,0.32562 0.16668,0.7878 0.18958,1.01835 0.004,0.0391 0.008,0.0697 0.0102,0.068 0.002,-0.002 0.0153,-0.0867 0.0301,-0.1889 0.0505,-0.34817 0.15741,-0.80997 0.28389,-1.22601 0.12142,-0.39939 0.54235,-1.80211 0.58311,-1.94317 0.0535,-0.18505 0.0577,-0.19396 0.10365,-0.21636 0.0349,-0.017 0.0785,-0.0183 0.54718,-0.0155 0.55977,0.003 0.55005,0.002 0.56164,0.067 0.003,0.0188 0.005,0.98972 0.003,2.15758 l -0.003,2.12338 -0.0239,0.0239 -0.0239,0.0239 h -0.34714 -0.34714 l -0.0205,-0.0254 c -0.0202,-0.0249 -0.0205,-0.0496 -0.0163,-1.55928 0.004,-1.45166 0.005,-1.54463 0.0255,-1.73343 0.0198,-0.18589 0.0211,-0.21614 0.008,-0.20327 -0.003,0.003 -0.22419,0.78595 -0.49211,1.74046 -0.37629,1.34063 -0.49228,1.74064 -0.5098,1.75818 -0.0222,0.0222 -0.0299,0.0228 -0.37858,0.0258 -0.19575,0.002 -0.37153,-9.1e-4 -0.39062,-0.006 -0.022,-0.006 -0.041,-0.0203 -0.0518,-0.0399 -0.009,-0.017 -0.2174,-0.80547 -0.46224,-1.75217 -0.24484,-0.94671 -0.44665,-1.71362 -0.44845,-1.70426 -0.002,0.009 0.005,0.0941 0.0153,0.18826 0.0167,0.15407 0.0189,0.32477 0.0221,1.70425 0.002,0.84317 7.9e-4,1.54397 -0.003,1.55735 -0.0122,0.0488 -0.0523,0.0545 -0.38035,0.0538 -0.16622,-3.7e-4 -0.31258,-0.005 -0.32524,-0.01 z"
         id="path23"
         inkscape:connector-curvature="0" />
    </g>
  </g>
</svg>
