<?xml version="1.0" encoding="UTF-8" standalone="no"?>
<svg xmlns="http://www.w3.org/2000/svg" width="52.916668mm" height="52.916668mm" viewBox="0 0 52.916668 52.916668">
  <g transform="matrix(6.0032 0 0 6.00164 -790.65161 -732.54214)">
    <path fill="#f47913" d="M135.85373 130.17206c-.4796-.0339-.95678-.16423-1.38603-.37862-1.14705-.57294-1.91285-1.6738-2.04747-2.94332-.0205-.19329-.0204-.57141.00024-.76779.0756-.71979.34108-1.36239.80569-1.95012.10941-.1384.42222-.44988.56953-.5671.53795-.42806 1.16324-.69293 1.855-.78577.20489-.0275.65029-.0331.84355-.0106.86213.10041 1.60102.44649 2.20534 1.03293.54485.52872.91419 1.20534 1.05935 1.94065.0526.26657.0639.39338.0639.71927 0 .38055-.0236.58455-.10514.90826-.23509.93349-.8172 1.73089-1.64297 2.25063-.15911.10014-.48371.26072-.65796.32549-.49722.18481-1.0385.2631-1.56301.22606zm.64439-1.24775c.0687-.0197.0637.13025.064-1.90881l.00034-1.86116h.6097c.41667 0 .61641-.004.6309-.0113.0458-.0245.0509-.0636.0509-.38576 0-.31264-.005-.36028-.0424-.38014-.0123-.007-.62386-.0103-1.70041-.0103H134.43l-.0258.0258-.0258.0258v.67459l.0307.0307.0307.0307h1.21964v1.84735c0 1.19671.004 1.85701.0104 1.87476.0203.0535.0474.0571.43591.0575.19873.00023.3727-.004.39231-.01z"/>
    <path fill="#fff" d="M135.80648 130.86595c-1.22942-.0895-2.36347-.68627-3.13675-1.65067-.32161-.4011-.58251-.88327-.74689-1.38033-.4116-1.2446-.23341-2.63685.47951-3.74638.27975-.43539.65492-.83917 1.06783-1.14924.5497-.4128 1.19805-.69577 1.86379-.81344.46267-.0818.95144-.0909 1.40178-.0262 1.24342.17868 2.3506.87709 3.04474 1.92063.38918.58507.61385 1.18457.7102 1.8951.0313.23056.0388.70257.0152.95045-.0842.88366-.40345 1.66814-.9656 2.37305-.13875.17399-.49015.52426-.66772.66558-.15285.12165-.44006.31678-.59454.40394-.43082.24307-.93252.42114-1.42175.50462-.30377.0518-.75322.0745-1.04977.0529zm.54076-.69293c.50953-.0343.94184-.14948 1.39653-.37211.60422-.29585 1.09643-.72766 1.46764-1.28756.33015-.49796.51896-1.01528.59748-1.63697.0217-.17185.0187-.68367-.005-.86102-.11627-.86806-.49032-1.61791-1.10424-2.21366-.60432-.58644-1.34321-.93252-2.20534-1.03293-.19326-.0225-.63866-.0169-.84355.0106-.69176.0928-1.31705.35771-1.855.78577-.14731.11722-.46012.4287-.56953.5671-.40171.50816-.6517 1.05095-.76409 1.65904-.0763.4128-.0781.91598-.005 1.32663.29829 1.66884 1.70608 2.93481 3.39633 3.05418.18095.0128.31405.013.49351.00096zm-.63272-1.25429c-.019-.008-.0388-.027-.0446-.0423-.007-.0178-.0104-.67805-.0104-1.87476v-1.84735h-1.21964l-.0307-.0307-.0307-.0307v-.67459l.0258-.0258.0258-.0258h1.6812c1.07655 0 1.68811.004 1.70041.0103.0371.0199.0424.0675.0424.38014 0 .32218-.005.36126-.0509.38576-.0145.008-.21423.0113-.6309.0113h-.6097l-.00034 1.86116c-.00036 2.03906.005 1.8891-.064 1.90881-.0196.006-.19358.01-.39231.01-.28416-.00032-.36407-.003-.39129-.0153z"/>
  </g>
</svg>