<?xml version="1.0" encoding="UTF-8" standalone="no"?>
<svg
   height="48"
   viewBox="0 96 960 960"
   width="48"
   version="1.1"
   id="svg4"
   sodipodi:docname="transfer.svg"
   inkscape:version="1.2.2 (732a01da63, 2022-12-09)"
   xml:space="preserve"
   xmlns:inkscape="http://www.inkscape.org/namespaces/inkscape"
   xmlns:sodipodi="http://sodipodi.sourceforge.net/DTD/sodipodi-0.dtd"
   xmlns="http://www.w3.org/2000/svg"
   xmlns:svg="http://www.w3.org/2000/svg"><defs
     id="defs8" /><sodipodi:namedview
     id="namedview6"
     pagecolor="#ffffff"
     bordercolor="#000000"
     borderopacity="0.25"
     inkscape:showpageshadow="2"
     inkscape:pageopacity="0"
     inkscape:pagecheckerboard="true"
     inkscape:deskcolor="#d1d1d1"
     showgrid="false"
     showguides="true"
     inkscape:zoom="21.395833"
     inkscape:cx="10.165531"
     inkscape:cy="24.72444"
     inkscape:window-width="2560"
     inkscape:window-height="1369"
     inkscape:window-x="-8"
     inkscape:window-y="-8"
     inkscape:window-maximized="1"
     inkscape:current-layer="svg4"><sodipodi:guide
       position="483.27167,479.53262"
       orientation="0,-1"
       id="guide280"
       inkscape:locked="false" /><sodipodi:guide
       position="483.27167,481.40214"
       orientation="1,0"
       id="guide282"
       inkscape:locked="false" /></sodipodi:namedview><circle
     style="fill:#444444;fill-opacity:1;stroke-width:20"
     id="path1380"
     cx="483.27167"
     cy="573.66309"
     r="448.68549" /><path
     id="path286"
     style="fill:#ffffff;stroke-width:20"
     d="M 483.28125 111.89844 A 462.70691 462.70691 0 0 0 20.546875 574.59375 A 462.70691 462.70691 0 0 0 483.28125 1037.2891 A 462.70691 462.70691 0 0 0 945.97656 574.59375 A 462.70691 462.70691 0 0 0 483.28125 111.89844 z M 483.28125 169.82812 A 403.81696 403.81696 0 0 1 887.07031 573.65625 A 403.81696 403.81696 0 0 1 483.28125 977.48438 A 403.81696 403.81696 0 0 1 79.453125 573.65625 A 403.81696 403.81696 0 0 1 483.28125 169.82812 z " /><path
     d="m 240.37473,871.78923 78.79026,-405.00961 -67.73198,29.71913 v 92.61311 H 209.96445 V 468.85305 L 339.89927,412.8705 q 18.66085,-8.29372 40.43184,-4.49243 21.771,3.80128 32.82928,21.77099 l 29.02799,45.61542 q 19.35199,31.10141 49.4167,51.49012 30.0647,20.3887 69.45983,20.3887 v 41.46856 q -41.46856,0 -79.4814,-19.35199 -38.01285,-19.352 -67.04084,-62.89398 l -26.95456,105.74482 61.51169,57.36484 V 871.78923 H 407.63125 V 706.60611 L 335.75241,638.18299 283.22557,871.78923 Z M 413.16039,378.31336 q -20.73428,0 -35.59385,-14.85957 -14.85957,-14.85957 -14.85957,-35.59385 0,-20.73428 14.85957,-35.59384 14.85957,-14.85957 35.59385,-14.85957 20.73428,0 35.59384,14.85957 14.85957,14.85956 14.85957,35.59384 0,20.73428 -14.85957,35.59385 -14.85956,14.85957 -35.59384,14.85957 z m 283.36848,492.78473 -24.18999,-24.19002 24.18999,-24.19 H 541.02178 v -34.55713 h 155.50709 l -24.18999,-24.18999 24.18999,-24.18999 65.65853,65.65855 z m -89.84854,-121.64114 -65.65855,-65.65855 65.65855,-65.65855 24.18999,24.18999 -24.18999,24.19 H 762.1874 v 34.55713 H 606.68033 l 24.18999,24.18999 z"
     id="path415"
     style="fill:#ffffff;stroke-width:0.691143" /></svg>
